Patient4_TMGait_0pt3_01_left_21_GRF.mot
version=1
nRows=25
nColumns=19
inDegrees=no
endheader
time	F1x	F1y	F1z	M1x	M1y	M1z	F2x	F2y	F2z	M2x	M2y	M2z	EC1x	EC1y	EC1z	EC2x	EC2y	EC2z
39.31	-0.68295	-0.67184	1.6998	-0.0096176	-0.60548	-1.0651	-9.3969	788.8553	-45.7903	282.9392	52.9126	768.2597	-0.0592	0.0182	-0.0073	-0.0462	0.0165	0.9585
39.3291	-0.52382	-0.30333	1.2258	-0.11361	-0.51959	-0.5259	-11.2744	793.8123	-45.9768	285.0472	52.9473	771.1806	-0.0592	0.0182	-0.0073	-0.0462	0.0165	0.9585
39.3481	-0.41361	0.074732	0.81184	-0.21278	-0.44087	-0.017657	-13.2637	800.5359	-46.3384	287.6669	53.135	775.4498	-0.0592	0.0182	-0.0073	-0.0462	0.0165	0.9585
39.3672	-0.34046	0.41711	0.48766	-0.29675	-0.37922	0.41362	-15.168	808.823	-46.8706	290.6892	53.4402	780.9309	-0.0592	0.0182	-0.0073	-0.0462	0.0165	0.9585
39.3863	-0.29616	0.697	0.25496	-0.35979	-0.33567	0.74969	-16.7524	818.141	-47.5385	293.9208	53.7728	787.1392	-0.0592	0.0182	-0.0073	-0.0462	0.0165	0.9585
39.4054	-0.27608	0.89913	0.10141	-0.39669	-0.30944	0.98629	-17.815	827.5289	-48.284	297.0385	54.0256	793.1707	-0.0592	0.0182	-0.0073	-0.0462	0.0165	0.9585
39.4244	-0.2781	1.004	0.010277	-0.40035	-0.30041	1.1121	-18.2144	835.7008	-49.0158	299.6156	54.0805	797.8182	-0.0592	0.0182	-0.0073	-0.0462	0.0165	0.9585
39.4435	-0.30318	0.98228	-0.034124	-0.35952	-0.30771	1.1034	-17.8894	841.3052	-49.61	301.2044	53.8122	799.8286	-0.0592	0.0182	-0.0073	-0.0462	0.0165	0.9585
39.4626	-0.35294	0.79165	-0.04655	-0.25763	-0.32885	0.9192	-16.8736	843.1929	-49.9259	301.4292	53.1062	798.1612	-0.0592	0.0182	-0.0073	-0.0462	0.0165	0.9585
39.4816	-0.42529	0.38235	-0.038708	-0.076191	-0.35988	0.50953	-15.2677	840.6563	-49.8288	300.0695	51.8719	792.2045	-0.0592	0.0182	-0.0073	-0.0462	0.0165	0.9585
39.5007	-0.51099	-0.29164	-0.020596	0.20298	-0.39199	-0.17126	-13.1924	833.585	-49.2237	297.1138	50.0597	781.9034	-0.0592	0.0182	-0.0073	-0.0462	0.0165	0.9585
39.5198	-0.59377	-1.262	-0.0066533	0.59418	-0.40921	-1.1597	-10.7519	822.4519	-48.0867	292.7536	47.6821	767.7343	-0.0592	0.0182	-0.0073	-0.0462	0.0165	0.9585
39.5389	-0.64796	-2.5244	-0.012712	1.0961	-0.392	-2.4592	-8.0161	808.1599	-46.4753	287.3292	44.8151	750.5539	-0.0592	0.0182	-0.0073	-0.0462	0.0165	0.9585
39.5579	-0.63503	-3.999	-0.053307	1.6776	-0.31539	-3.989	-5.0162	791.8414	-44.5017	281.2565	41.5715	731.4052	-0.0592	0.0182	-0.0073	-0.0462	0.0165	0.9585
39.577	-0.50821	-5.4821	-0.14113	2.2582	-0.14805	-5.5421	-1.7481	774.6686	-42.3076	274.9597	38.0799	711.3496	-0.0592	0.0182	-0.0073	-0.0462	0.0165	0.9585
39.5961	-0.20466	-6.5968	-0.28345	2.6871	0.14399	-6.7352	1.8263	757.7224	-40.0426	268.8219	34.4643	691.3509	-0.0592	0.0182	-0.0073	-0.0462	0.0165	0.9585
39.6151	0.35303	-6.7401	-0.47816	2.7218	0.58968	-6.9428	5.7496	741.9134	-37.8449	263.1542	30.8359	672.2231	-0.0592	0.0182	-0.0073	-0.0462	0.0165	0.9585
39.6342	1.2434	-5.0471	-0.71302	2.0156	1.2084	-5.2566	10.0226	727.9014	-35.8343	258.1667	27.2977	654.5826	-0.0592	0.0182	-0.0073	-0.0462	0.0165	0.9585
39.6533	2.5274	-0.39435	-0.96121	0.1179	1.9962	-0.49491	14.5688	716.0079	-34.1281	253.9395	23.969	638.7812	-0.0592	0.0182	-0.0073	-0.0462	0.0165	0.9585
39.6724	4.2123	8.533	-1.1749	-3.4976	2.9029	8.7351	19.2218	706.1822	-32.8352	250.415	20.9876	624.8856	-0.0592	0.0182	-0.0073	-0.0462	0.0165	0.9585
39.6914	6.1988	23.0684	-1.2753	-9.3614	3.8	23.857	23.7215	697.9921	-32.0212	247.4017	18.4834	612.6692	-0.0592	0.0182	-0.0073	-0.0462	0.0165	0.9585
39.7105	8.2219	44.2247	-1.1405	-17.87	4.4461	45.9722	27.7354	690.5671	-31.6876	244.5632	16.5581	601.5457	-0.0592	0.0182	-0.0073	-0.0462	0.0165	0.9585
39.7296	9.7595	72.1827	-0.60732	-29.0821	4.4558	75.3277	30.8982	682.6206	-31.7531	241.4344	15.2613	590.5736	-0.0592	0.0182	-0.0073	-0.0462	0.0165	0.9585
39.7486	10.0318	105.6992	0.48243	-42.486	3.347	110.703	32.8756	672.6525	-32.046	237.4961	14.561	578.6101	-0.0592	0.0182	-0.0073	-0.0462	0.0165	0.9585
39.7677	8.6567	141.986	2.2778	-56.9443	0.80899	149.2397	33.4588	659.3311	-32.3502	232.3047	14.3567	564.5906	-0.0592	0.0182	-0.0073	-0.0462	0.0165	0.9585
